<?xml version="1.0" encoding="UTF-8" standalone="no"?>
<!-- Created with Inkscape (http://www.inkscape.org/) -->

<svg
   width="210mm"
   height="297mm"
   viewBox="0 0 210 297"
   version="1.1"
   id="svg312"
   xml:space="preserve"
   xmlns="http://www.w3.org/2000/svg"
   xmlns:svg="http://www.w3.org/2000/svg"><defs
     id="defs309" /><g
     id="layer1"><path
       style="fill:#000000;stroke-width:0.264583"
       d="m 132.50052,182.94708 c -2.1709,-0.35986 -5.02159,-1.70697 -9.13862,-4.31851 -2.0373,-1.2923 -4.8032,-2.98778 -6.14647,-3.76773 l -2.4423,-1.41807 -1.52645,-0.28288 c -0.83955,-0.15558 -2.77661,-0.2387 -4.30458,-0.18471 l -2.77812,0.0982 -1.72557,0.81206 c -0.94906,0.44663 -3.50891,1.88682 -5.688537,3.20042 -7.34272,4.42523 -10.26606,5.62096 -13.763111,5.62952 -3.517784,0.009 -6.135402,-1.20352 -9.156325,-4.24 l -2.023132,-2.03354 -0.955583,-1.98674 c -0.525571,-1.09271 -1.202359,-2.92473 -1.503973,-4.07117 l -0.54839,-2.08443 -0.02713,-3.175 c -0.05501,-6.43637 2.096337,-13.02028 5.981849,-18.30668 0.621361,-0.84539 1.453179,-2.13238 1.848485,-2.85999 1.878081,-3.45682 6.064888,-7.90743 9.8267,-10.44588 4.19205,-2.82877 9.88551,-5.00632 15.353477,-5.87218 1.16416,-0.18434 4.08119,-0.32578 6.48228,-0.3143 l 4.36563,0.0209 2.51354,0.45368 c 7.89711,1.42539 13.9027,4.32266 19.28001,9.30122 1.99189,1.84419 4.70927,5.25862 5.63728,7.08335 0.30661,0.60288 1.03178,1.81053 1.61149,2.68365 2.4575,3.70135 4.27631,8.14493 5.10357,12.46862 0.49148,2.56872 0.49068,7.75105 -0.002,10.09107 -1.46442,6.96158 -5.86549,12.07387 -11.54708,13.41312 -1.87665,0.44235 -2.60064,0.4586 -4.72738,0.10605 z m 5.98129,-4.20348 1.62616,-0.79294 1.58554,-1.69494 c 5.77381,-6.17223 5.53482,-17.58411 -0.56527,-26.99069 -0.7605,-1.17272 -1.96979,-3.11854 -2.68731,-4.32405 -3.69137,-6.20184 -11.20714,-11.35289 -19.31237,-13.23602 -8.57952,-1.99334 -18.02351,-1.05153 -25.077937,2.50091 -5.45334,2.74617 -9.880775,6.85947 -12.600549,11.70649 -0.495777,0.88355 -1.418582,2.2935 -2.050683,3.13324 -1.336963,1.77613 -3.222185,5.54427 -4.007,8.00908 -0.946136,2.97147 -1.221879,4.79988 -1.197058,7.9375 l 0.02407,3.04271 0.646122,2.1594 c 1.549236,5.17771 5.180555,8.68607 9.335731,9.0196 3.119397,0.2504 5.455397,-0.67004 12.611897,-4.96937 2.13308,-1.28147 4.800437,-2.77346 5.927447,-3.31553 l 2.04912,-0.98559 2.24059,-0.27169 2.24059,-0.27169 3.06892,0.28521 3.06891,0.28521 2.25997,1.1795 c 1.24299,0.64872 3.81864,2.19804 5.72367,3.44294 8.0782,5.27892 11.08148,6.10505 15.08944,4.15072 z m -77.5261,-31.63367 c -3.573544,-0.86497 -7.274385,-3.7941 -9.381177,-7.42499 -1.151563,-1.98463 -2.692839,-6.17778 -2.692839,-7.32607 0,-0.37013 -0.119063,-0.74654 -0.264584,-0.83648 -0.311382,-0.19245 -0.370328,-8.33438 -0.06034,-8.33438 0.112334,0 0.348288,-0.75933 0.524341,-1.6874 0.725926,-3.82674 3.061706,-7.99688 5.936266,-10.59821 2.674548,-2.42033 5.548811,-3.57018 8.956123,-3.58292 6.394462,-0.0239 11.824001,4.56346 14.413939,12.1782 0.919279,2.70279 1.277622,5.66993 1.11252,9.21182 -0.178142,3.82161 -0.86223,6.53482 -2.472042,9.80454 l -1.227762,2.49373 -2.148293,2.16093 c -3.755595,3.77768 -7.968613,5.08552 -12.696152,3.94123 z m 5.955926,-3.55022 c 3.849615,-1.21425 6.787156,-4.70415 8.469663,-10.06227 l 0.620186,-1.97505 -0.01029,-4.23333 -0.01029,-4.23334 -0.82645,-2.38125 c -1.062601,-3.06159 -1.92469,-4.57193 -3.710854,-6.5012 l -1.443561,-1.55922 -1.756212,-0.86458 -1.756212,-0.86458 -2.519105,0.001 -2.519105,10e-4 -1.5875,0.7749 c -3.157858,1.54154 -5.691037,4.86899 -7.163294,9.40944 l -0.729234,2.24896 -0.02249,3.70416 -0.02249,3.70417 0.500533,1.98437 c 2.101605,8.33186 8.135836,12.8499 14.486701,10.8467 z m 88.200264,3.59188 c -0.72761,-0.18319 -2.0373,-0.67105 -2.91042,-1.08413 l -1.5875,-0.75104 -2.12057,-2.13452 -2.12057,-2.13451 -0.99373,-1.90114 c -2.14349,-4.10079 -3.01052,-8.28689 -2.75407,-13.29692 l 0.15654,-3.05819 0.68928,-2.3682 c 0.3791,-1.3025 1.18233,-3.32657 1.78494,-4.49791 l 1.09566,-2.12972 2.13126,-2.1471 c 3.03609,-3.05865 5.85763,-4.3414 9.52147,-4.32873 2.34391,0.008 3.78655,0.33693 5.89675,1.34403 4.1911,2.00023 8.12269,7.4981 9.11944,12.75245 0.18488,0.97463 0.42806,1.77205 0.5404,1.77205 0.11233,0 0.20424,1.905 0.20424,4.23334 0,2.32833 -0.10554,4.23333 -0.23454,4.23333 -0.129,0 -0.31826,0.55825 -0.42058,1.24056 -0.3849,2.5667 -1.90995,6.05277 -3.76789,8.61292 -3.31609,4.56941 -9.21087,6.90718 -14.23011,5.64343 z m 6.85021,-3.94025 c 2.10419,-0.96333 3.39913,-2.05106 4.83156,-4.05843 6.2212,-8.71823 3.79449,-23.3558 -4.5559,-27.48047 l -1.56962,-0.77531 -2.51355,-0.006 -2.51354,-0.006 -1.52205,0.71329 c -1.87512,0.87875 -4.15357,2.99401 -5.35457,4.97107 -0.49718,0.81844 -1.29182,2.61272 -1.76586,3.98728 l -0.86191,2.49919 -0.0103,4.23334 -0.0103,4.23333 0.61962,1.98438 c 2.12133,6.79374 6.56919,10.73853 11.83027,10.49224 l 1.86655,-0.0874 1.52961,-0.70028 z M 87.775443,119.0651 c -4.867004,-1.28404 -9.142602,-5.28805 -11.560365,-10.82605 -2.485897,-5.69406 -2.856073,-13.007864 -0.962369,-19.014154 2.498916,-7.92584 7.877998,-13.03654 14.507114,-13.78328 l 1.5875,-0.17883 1.98437,0.41274 c 1.09141,0.22701 2.75828,0.79215 3.70417,1.25588 l 1.71979,0.84315 2.248957,2.27092 c 3.13191,3.1625 4.78217,6.16154 5.97772,10.86337 l 0.50457,1.98437 -5.3e-4,4.63021 -5.3e-4,4.630214 -0.60409,2.24896 c -1.28931,4.79993 -4.3452,9.65238 -7.635837,12.12491 -3.4793,2.6143 -7.66775,3.54089 -11.47065,2.53759 z m 5.82644,-3.44389 c 1.42089,-0.42196 3.47787,-1.62351 4.78521,-2.7952 2.180857,-1.95457 4.199967,-5.65284 5.166567,-9.46327 l 0.6423,-2.53202 0.002,-3.401414 0.002,-3.40142 -0.56014,-2.28713 c -0.30809,-1.25791 -1.09408,-3.39849 -1.74667,-4.75683 l -1.18651,-2.46971 -1.901477,-1.92663 c -2.08735,-2.11496 -3.31164,-2.85189 -5.79485,-3.48806 l -1.64366,-0.42108 -1.39926,0.16445 c -7.059328,0.82971 -12.509681,8.91089 -12.509681,18.54824 0,11.731974 7.918159,20.673024 16.144471,18.230074 z m 32.273557,3.46181 c -0.80037,-0.21993 -2.22711,-0.78526 -3.17055,-1.25629 l -1.71533,-0.85642 -2.12113,-2.11667 c -3.4204,-3.41322 -5.42826,-7.61814 -6.37107,-13.3425 l -0.45444,-2.759164 0.15665,-2.5325 c 0.70234,-11.35456 6.98968,-19.71689 15.63671,-20.79727 2.10611,-0.26314 4.68499,0.27848 7.24101,1.52074 l 2.19039,1.06457 1.67643,1.62202 c 3.83011,3.70578 6.1376,8.85229 6.81692,15.20407 l 0.29242,2.73414 -0.29548,2.557534 c -0.374,3.23722 -0.93877,5.44192 -2.07482,8.09951 -2.16291,5.05975 -5.70044,8.71274 -10.03494,10.36245 l -1.81965,0.69256 -2.24896,0.10154 -2.24895,0.10154 z m 7.01146,-3.82643 c 4.16933,-1.80417 7.4781,-6.29562 8.9037,-12.08619 l 0.57602,-2.33968 -0.006,-3.439584 -0.006,-3.43958 -0.57757,-2.38125 c -1.65235,-6.81249 -5.92037,-11.62219 -11.17018,-12.58787 l -1.68783,-0.31047 -1.51328,0.31469 c -5.30362,1.10288 -9.22879,5.53715 -11.10526,12.5456 l -0.57691,2.15471 -0.006,3.70417 -0.006,3.704174 0.60307,2.24895 c 1.67141,6.23299 5.06824,10.54014 9.55451,12.11505 l 1.72691,0.60624 1.98437,-0.11825 c 1.21722,-0.0725 2.49581,-0.33956 3.30729,-0.69071 z"
       id="path328" /></g></svg>
